<svg data-v-423bf9ae="" xmlns="http://www.w3.org/2000/svg" viewBox="0 0 525.5791679964564 163" class="iconAbove"><!----><!----><!----><g data-v-423bf9ae="" id="3003e631-ce8b-4943-89c4-59c9af6ab515" fill="#361414" transform="matrix(5.7915059834320255,0,0,5.7915059834320255,-5.501930560379435,86.78377994627218)"><path d="M5.07 8.36L9.03 8.36L9.03 13.02L8.19 13.02L8.15 11.77L8.15 11.77Q7.74 12.45 7.01 12.80L7.01 12.80L7.01 12.80Q6.27 13.16 5.24 13.16L5.24 13.16L5.24 13.16Q3.93 13.16 2.97 12.58L2.97 12.58L2.97 12.58Q2.00 12.00 1.48 10.93L1.48 10.93L1.48 10.93Q0.95 9.86 0.95 8.40L0.95 8.40L0.95 8.40Q0.95 6.96 1.49 5.88L1.49 5.88L1.49 5.88Q2.03 4.80 3.00 4.22L3.00 4.22L3.00 4.22Q3.98 3.64 5.26 3.64L5.26 3.64L5.26 3.64Q6.64 3.64 7.53 4.16L7.53 4.16L7.53 4.16Q8.41 4.68 8.96 5.75L8.96 5.75L7.94 6.31L7.94 6.31Q7.63 5.53 6.94 5.11L6.94 5.11L6.94 5.11Q6.24 4.69 5.26 4.69L5.26 4.69L5.26 4.69Q4.33 4.69 3.62 5.14L3.62 5.14L3.62 5.14Q2.91 5.59 2.52 6.42L2.52 6.42L2.52 6.42Q2.13 7.25 2.13 8.40L2.13 8.40L2.13 8.40Q2.13 10.16 2.94 11.14L2.94 11.14L2.94 11.14Q3.75 12.11 5.28 12.11L5.28 12.11L5.28 12.11Q6.48 12.11 7.25 11.49L7.25 11.49L7.25 11.49Q8.01 10.88 8.01 9.73L8.01 9.73L8.01 9.41L5.07 9.41L5.07 8.36ZM15.37 3.64L15.37 3.64Q16.67 3.64 17.64 4.22L17.64 4.22L17.64 4.22Q18.61 4.80 19.13 5.87L19.13 5.87L19.13 5.87Q19.66 6.94 19.66 8.40L19.66 8.40L19.66 8.40Q19.66 9.86 19.13 10.93L19.13 10.93L19.13 10.93Q18.61 12.00 17.64 12.58L17.64 12.58L17.64 12.58Q16.67 13.16 15.37 13.16L15.37 13.16L15.37 13.16Q14.07 13.16 13.10 12.58L13.10 12.58L13.10 12.58Q12.14 12.00 11.61 10.93L11.61 10.93L11.61 10.93Q11.09 9.86 11.09 8.40L11.09 8.40L11.09 8.40Q11.09 6.94 11.61 5.87L11.61 5.87L11.61 5.87Q12.14 4.80 13.10 4.22L13.10 4.22L13.10 4.22Q14.07 3.64 15.37 3.64L15.37 3.64ZM15.37 4.69L15.37 4.69Q13.93 4.69 13.10 5.68L13.10 5.68L13.10 5.68Q12.26 6.66 12.26 8.40L12.26 8.40L12.26 8.40Q12.26 10.14 13.10 11.12L13.10 11.12L13.10 11.12Q13.93 12.11 15.37 12.11L15.37 12.11L15.37 12.11Q16.81 12.11 17.65 11.12L17.65 11.12L17.65 11.12Q18.48 10.14 18.48 8.40L18.48 8.40L18.48 8.40Q18.48 6.66 17.65 5.68L17.65 5.68L17.65 5.68Q16.81 4.69 15.37 4.69L15.37 4.69ZM26.42 13.02L26.42 12.11L26.42 12.11Q28.34 10.70 29.36 9.78L29.36 9.78L29.36 9.78Q30.38 8.86 30.82 8.11L30.82 8.11L30.82 8.11Q31.26 7.36 31.26 6.54L31.26 6.54L31.26 6.54Q31.26 5.71 30.73 5.20L30.73 5.20L30.73 5.20Q30.20 4.69 29.30 4.69L29.30 4.69L29.30 4.69Q28.36 4.69 27.78 5.31L27.78 5.31L27.78 5.31Q27.20 5.92 27.10 6.97L27.10 6.97L26.12 6.38L26.12 6.38Q26.31 5.14 27.14 4.39L27.14 4.39L27.14 4.39Q27.97 3.64 29.34 3.64L29.34 3.64L29.34 3.64Q30.27 3.64 30.98 4.00L30.98 4.00L30.98 4.00Q31.68 4.37 32.06 5.03L32.06 5.03L32.06 5.03Q32.44 5.68 32.44 6.54L32.44 6.54L32.44 6.54Q32.44 7.43 32.01 8.26L32.01 8.26L32.01 8.26Q31.58 9.09 30.62 10.00L30.62 10.00L30.62 10.00Q29.65 10.91 28.01 12.00L28.01 12.00L28.01 12.01L28.01 12.01Q28.94 11.97 29.40 11.97L29.40 11.97L32.63 11.97L32.63 13.02L26.42 13.02ZM47.28 10.65L47.28 10.65Q46.84 11.83 45.85 12.49L45.85 12.49L45.85 12.49Q44.86 13.16 43.55 13.16L43.55 13.16L43.55 13.16Q42.25 13.16 41.29 12.58L41.29 12.58L41.29 12.58Q40.32 12.00 39.80 10.93L39.80 10.93L39.80 10.93Q39.27 9.86 39.27 8.40L39.27 8.40L39.27 8.40Q39.27 6.96 39.80 5.88L39.80 5.88L39.80 5.88Q40.32 4.80 41.29 4.22L41.29 4.22L41.29 4.22Q42.25 3.64 43.53 3.64L43.53 3.64L43.53 3.64Q44.86 3.64 45.76 4.19L45.76 4.19L45.76 4.19Q46.66 4.73 47.11 5.80L47.11 5.80L46.00 6.31L46.00 6.31Q45.70 5.50 45.11 5.10L45.11 5.10L45.11 5.10Q44.52 4.69 43.61 4.69L43.61 4.69L43.61 4.69Q42.66 4.69 41.94 5.13L41.94 5.13L41.94 5.13Q41.23 5.57 40.84 6.41L40.84 6.41L40.84 6.41Q40.45 7.25 40.45 8.40L40.45 8.40L40.45 8.40Q40.45 10.14 41.28 11.12L41.28 11.12L41.28 11.12Q42.11 12.11 43.55 12.11L43.55 12.11L43.55 12.11Q44.49 12.11 45.18 11.63L45.18 11.63L45.18 11.63Q45.86 11.16 46.16 10.23L46.16 10.23L47.28 10.65ZM58.94 7.03L57.32 13.02L55.93 13.02L53.20 3.78L54.40 3.78L56.63 12.14L58.81 3.78L60.09 3.78L62.27 12.17L64.51 3.78L65.65 3.78L62.93 13.02L61.54 13.02L59.91 7.03L59.43 4.94L59.42 4.94L58.94 7.03ZM69.93 5.88L69.93 5.88Q71.51 5.88 72.42 6.85L72.42 6.85L72.42 6.85Q73.32 7.81 73.32 9.52L73.32 9.52L73.32 9.52Q73.32 11.23 72.42 12.19L72.42 12.19L72.42 12.19Q71.51 13.16 69.93 13.16L69.93 13.16L69.93 13.16Q68.35 13.16 67.45 12.19L67.45 12.19L67.45 12.19Q66.54 11.23 66.54 9.52L66.54 9.52L66.54 9.52Q66.54 7.81 67.45 6.85L67.45 6.85L67.45 6.85Q68.35 5.88 69.93 5.88L69.93 5.88ZM69.93 6.85L69.93 6.85Q68.87 6.85 68.26 7.56L68.26 7.56L68.26 7.56Q67.66 8.27 67.66 9.52L67.66 9.52L67.66 9.52Q67.66 10.77 68.26 11.48L68.26 11.48L68.26 11.48Q68.87 12.19 69.93 12.19L69.93 12.19L69.93 12.19Q70.99 12.19 71.60 11.48L71.60 11.48L71.60 11.48Q72.20 10.77 72.20 9.52L72.20 9.52L72.20 9.52Q72.20 8.27 71.60 7.56L71.60 7.56L71.60 7.56Q70.99 6.85 69.93 6.85L69.93 6.85ZM78.79 5.88L78.79 5.88Q79.30 5.88 79.56 6.02L79.56 6.02L79.34 7.11L79.34 7.11Q79.00 6.93 78.46 6.93L78.46 6.93L78.46 6.93Q78.01 6.93 77.58 7.19L77.58 7.19L77.58 7.19Q77.15 7.45 76.88 7.97L76.88 7.97L76.88 7.97Q76.61 8.50 76.61 9.24L76.61 9.24L76.61 13.02L75.49 13.02L75.49 6.02L76.40 6.02L76.55 7.17L76.55 7.17Q77.14 5.88 78.79 5.88L78.79 5.88ZM82.26 2.80L82.26 11.14L82.26 11.14Q82.26 11.68 82.43 11.88L82.43 11.88L82.43 11.88Q82.59 12.08 83.02 12.08L83.02 12.08L83.02 12.08Q83.31 12.08 83.53 12.04L83.53 12.04L83.53 12.04Q83.75 12.00 84.04 11.89L84.04 11.89L83.86 12.96L83.86 12.96Q83.40 13.16 82.82 13.16L82.82 13.16L82.82 13.16Q81.97 13.16 81.56 12.70L81.56 12.70L81.56 12.70Q81.14 12.24 81.14 11.28L81.14 11.28L81.14 2.80L82.26 2.80ZM90.58 2.80L91.70 2.80L91.70 13.02L90.72 13.02L90.65 11.80L90.65 11.80Q90.34 12.42 89.71 12.79L89.71 12.79L89.71 12.79Q89.07 13.16 88.26 13.16L88.26 13.16L88.26 13.16Q86.79 13.16 85.93 12.19L85.93 12.19L85.93 12.19Q85.06 11.21 85.06 9.52L85.06 9.52L85.06 9.52Q85.06 7.83 85.93 6.85L85.93 6.85L85.93 6.85Q86.79 5.88 88.26 5.88L88.26 5.88L88.26 5.88Q89.03 5.88 89.64 6.22L89.64 6.22L89.64 6.22Q90.24 6.55 90.58 7.11L90.58 7.11L90.58 2.80ZM88.38 12.18L88.38 12.18Q89.39 12.18 89.99 11.48L89.99 11.48L89.99 11.48Q90.58 10.78 90.58 9.60L90.58 9.60L90.58 9.44L90.58 9.44Q90.58 8.26 89.99 7.56L89.99 7.56L89.99 7.56Q89.39 6.86 88.38 6.86L88.38 6.86L88.38 6.86Q87.36 6.86 86.77 7.58L86.77 7.58L86.77 7.58Q86.18 8.30 86.18 9.52L86.18 9.52L86.18 9.52Q86.18 10.74 86.77 11.46L86.77 11.46L86.77 11.46Q87.36 12.18 88.38 12.18L88.38 12.18Z"></path></g><defs data-v-423bf9ae=""><linearGradient data-v-423bf9ae="" gradientTransform="rotate(25)" id="ebc22228-b135-4c8e-91c9-00a881031cbc" x1="0%" y1="0%" x2="100%" y2="0%"><stop data-v-423bf9ae="" offset="0%" style="stop-color: rgb(240, 0, 121); stop-opacity: 1;"></stop><stop data-v-423bf9ae="" offset="100%" style="stop-color: rgb(242, 160, 65); stop-opacity: 1;"></stop></linearGradient></defs><g data-v-423bf9ae="" id="9dd701a9-d8c2-4b06-b72d-566c43635004" transform="matrix(1.821309285288709,0,0,1.821309285288709,181.72198377351555,-36.578127484926114)" stroke="none" fill="url(#ebc22228-b135-4c8e-91c9-00a881031cbc)"><path d="M30.9 50.5c.3 0 .5-.1.7-.2.9-.4 1.3-1.5.9-2.4-.3-.6-.9-1.1-1.6-1.1-.3 0-.5.1-.7.2-.4.2-.8.6-.9 1-.2.4-.2.9 0 1.4.2.7.9 1.1 1.6 1.1zm-.3-1.9l.2-.2h.1c.1 0 .2.1.3.2.1.2 0 .3-.2.4-.2.1-.3 0-.4-.2v-.2zM37.1 47.8c.3 0 .5-.1.7-.2.4-.2.8-.6.9-1 .2-.4.2-.9 0-1.4-.3-.6-.9-1.1-1.6-1.1-.3 0-.5.1-.7.2-.4.2-.8.6-.9 1-.2.4-.2.9 0 1.4.2.7.9 1.1 1.6 1.1zm-.3-1.9l.2-.2h.1c.1 0 .2.1.3.2v.2l-.2.2c-.2.1-.3 0-.4-.2-.1-.1 0-.2 0-.2zM43.3 45c.3 0 .5-.1.7-.2.9-.4 1.3-1.5.9-2.4-.3-.6-.9-1.1-1.6-1.1-.3 0-.5.1-.7.2-.4.2-.8.6-.9 1-.2.4-.2.9 0 1.4.2.7.8 1.1 1.6 1.1zm-.3-1.9l.2-.2h.1c.1 0 .2.1.3.2.1.2 0 .3-.2.4-.2.1-.3 0-.4-.2-.1-.1-.1-.2 0-.2zM49.4 38.6c-.3 0-.5.1-.7.2-.9.4-1.3 1.5-.9 2.4.3.6.9 1.1 1.6 1.1.3 0 .5-.1.7-.2.9-.4 1.3-1.5.9-2.4-.2-.6-.9-1.1-1.6-1.1zm.2 2.1c-.2.1-.3 0-.4-.2-.1-.2 0-.3.2-.4h.1c.1 0 .2.1.3.2 0 .2-.1.4-.2.4zM55.6 39.5c.3 0 .5-.1.7-.2.4-.2.8-.6.9-1 .2-.4.2-.9 0-1.4-.3-.6-.9-1.1-1.6-1.1-.3 0-.5.1-.7.2-.4.2-.8.6-.9 1-.2.4-.2.9 0 1.4.3.7.9 1.1 1.6 1.1zm-.3-1.9l.2-.2h.1c.1 0 .2.1.3.2v.2l-.2.2c-.2.1-.3 0-.4-.2v-.2zM61.8 36.7c.3 0 .5-.1.7-.2.9-.4 1.3-1.5.9-2.4-.3-.6-.9-1.1-1.6-1.1-.3 0-.5.1-.7.2-.4.2-.8.6-.9 1-.2.4-.2.9 0 1.4.2.7.9 1.1 1.6 1.1zm-.3-1.9l.2-.2h.1c.1 0 .2.1.3.2.1.2 0 .3-.2.4-.2.1-.3 0-.4-.2v-.2zM68 33.9c.3 0 .5-.1.7-.2.9-.4 1.3-1.5.9-2.4-.3-.6-.9-1.1-1.6-1.1-.3 0-.5.1-.7.2-.4.2-.8.6-.9 1-.2.4-.2.9 0 1.4.2.7.9 1.1 1.6 1.1zm-.2-2h.1c.1 0 .2.1.3.2.1.2 0 .3-.2.4-.2.1-.3 0-.4-.2 0-.2.1-.4.2-.4z"></path><path d="M87.1 24.5c-1.2-2.8-7.8-1.7-9.7-.9L57 32.7l-6.8-2 6.2-2.8-.6-1.4-7.8 3.6-12.6-3.7-5.5 2.4L43 39l-15.6 7L16 40.1l-6.8 3 3.8 3.8-1.4.7.6 1.3 1.9-.9 2.7 2.7-7.1 3.2.6 1.4 62.3-27.9 4.5 1.7 5.2-2.4-.6-1.4-4.7 2.1-2.5-1L78 25c.8-.4 2.7-.8 4.5-.8 2.1 0 3 .5 3.2.9.6 1.3-3 4.9-5 5.8L64 38.4l.2-.9-.7-.2-.7-.2-.2.6-.4 1.5-.4 1.8-6.3 24-5.4 2.4-1.5-20.5-.1-1.6-.1-1-.7.1-.7.1V46l-10 4.5c-1.6.7-3.3 1.1-5.1 1.2l-12.6.3v1.5l12.7-.4c1.9-.1 3.8-.5 5.6-1.3l9.5-4.2 1.6 22 8-3.6 6.8-25.8 17.7-7.9c2-.8 7.1-5.1 5.9-7.8zm-54.3 4.6l2.7-1.2L46 31l-1 .4.6 1.4 2.5-1.2 6.8 2-8.3 3.7-10.5-8.2-.9 1.2L45 38l-.5.2-11.7-9.1zM15.5 47.4l2.8-1.3-.6-1.3-3.3 1.5-2.6-2.7 4.2-1.9 9.7 5-7.5 3.3-2.7-2.6z"></path><path d="M50.316 64.643L48.91 43.29l1.496-.099 1.407 21.353zM64.963 45.238l-.622-1.365 14.555-6.643.623 1.365zM18.927 64.335l24.106-10.761.612 1.37-24.106 10.76zM37.356 20.185l.612 1.37-23.733 10.618-.612-1.37zM26.829 29.87l.612 1.37L3.708 41.858l-.612-1.369zM35.116 69.216l-.612-1.37 12.231-5.472.613 1.37zM2.288 65.908l21.268-9.515.613 1.369-21.268 9.516zM63.59 51.366l-.596-1.377 8.35-3.62.596 1.377z"></path></g><!----></svg>